<?xml version="1.0" encoding="utf-8"?>
<!-- Generator: Adobe Illustrator 23.0.3, SVG Export Plug-In . SVG Version: 6.00 Build 0)  -->
<svg version="1.1" id="Layer_1" xmlns="http://www.w3.org/2000/svg" xmlns:xlink="http://www.w3.org/1999/xlink" x="0px" y="0px"
	 viewBox="0 0 1200 1200" enable-background="new 0 0 1200 1200" xml:space="preserve">
<g>
	<path fill="#F68E00" d="M1148.734,572.039c0-162.175-73.95-307.077-189.968-402.826C868.526,94.738,752.835,50,626.695,50
		c-143.84,0-274.086,58.181-368.507,152.286c0,0-0.017,0.004-0.017,0.004l-0.194,0.203c-5.988,5.975-11.834,12.092-17.528,18.35
		l-36.28,37.981c-203.869,203.869-203.869,534.406,0,738.275c203.869,203.869,534.406,203.869,738.275,0l53.954-56.489l-0.006-0.006
		C1090.529,846.179,1148.734,715.908,1148.734,572.039z"/>
	<path fill="#FFB000" d="M685.513,684.423c0,0.738-0.071,1.428-0.102,2.146c-6.577,1.241-14.006,1.9-22.399,1.9h-92.901v-43.779
		h57.213C666.113,644.689,685.513,657.942,685.513,684.423z M666.451,530.766c0.004-0.269,0.038-0.519,0.038-0.791
		c0-25.001-18.66-37.502-55.957-37.502h-40.421v39.863h76.108C653.733,532.335,660.451,531.795,666.451,530.766z M893.536,883.31
		c-160.482,135.725-400.937,127.96-552.238-23.341C189.996,708.667,182.232,468.212,317.956,307.73
		c160.482-135.724,400.936-127.959,552.238,23.342C1021.495,482.373,1029.26,722.828,893.536,883.31z M833.126,661.031
		c0-23.499-6.353-43.536-19.023-60.158c-11.953-15.68-30.805-29.735-52.61-36.638c4.226-1.883,24.189-11.775,38.89-34.974
		c26.36-41.596,14.241-96.721-25.456-124.802c-13.047-9.228-29.077-16.144-48.09-20.758v-50.474
		c0-19.309-15.654-34.974-34.974-34.974c-23.39,0-42.468,27.998-57.274,42.804c-10.186,10.186-13.389,21.774-13.389,35.713h-16.66
		v-43.543c0-19.309-15.654-34.974-34.974-34.974c-23.338-0.001-42.66,28.189-57.447,42.976c-7.74,7.741-13.216,16.348-13.216,27.686
		c0,0,0,7.982,0,7.983c0-1.184-15.314,3.953-16.599,4.629c-11.233,5.906-19.661,17.075-28.46,25.871
		c-13.145,13.141-29.091,25.746-29.091,46.051v309.73c0,22.638,18.353,40.991,40.992,40.991h33.158v42.367
		c0,19.309,15.654,34.975,34.975,34.975c13.576,0,21.606-7.636,30.807-16.451c14.859-14.238,39.855-31.47,39.855-54.211v-6.68h16.66
		v42.367c0,19.309,15.654,34.974,34.974,34.975c23.534,0,42.955-28.377,57.82-43.348c7.575-7.628,12.843-16.205,12.843-27.315
		v-20.337c10.936-3.86,20.719-8.597,29.195-14.327c15.9-10.744,31.165-25.971,44.587-39.553
		C822.071,714.926,833.126,692.454,833.126,661.031z"/>
	<path fill="#FFFF71" d="M702.177,494.287c0,25.366-18.66,38.049-55.957,38.049h-50.576L460.441,667.538v59.954
		c0,22.637,18.352,40.99,40.991,40.99h33.159v42.368c0,19.309,15.654,34.974,34.974,34.974s34.974-15.666,34.974-34.974v-42.368
		h52.348v42.368c0,19.309,15.655,34.974,34.974,34.974c19.321,0,34.975-15.666,34.975-34.974v-47.044
		c26.02-4.433,48.027-11.912,64.883-23.308c27.597-18.649,41.406-45.13,41.406-79.467c0-23.499-6.352-43.536-19.023-60.158
		c-12.694-16.577-30.227-28.804-52.61-36.637c16.793-8.584,29.749-20.242,38.89-34.974c9.142-14.732,13.72-31.423,13.72-50.094
		c0-31.331-13.07-56.242-39.176-74.708c-9.814-6.941-21.318-12.572-34.507-16.901l-71.278,71.278
		C691.132,463.294,702.177,475.091,702.177,494.287z M721.202,648.735c0,26.481-19.4,39.733-58.189,39.733h-92.901v-79.467h92.901
		C701.802,609.002,721.202,622.254,721.202,648.735z M1148.734,572.039c0,288.314-233.725,522.039-522.039,522.039
		c-162.174,0-307.076-73.949-402.826-189.968l83.166-83.166c10.486,13.529,21.842,26.603,34.263,39.024
		c151.301,151.302,390.786,159.884,551.268,24.159c0.348-0.259,0.706-0.557,0.971-0.818c8.709-7.365,17.197-15.13,25.409-23.341
		c159.513-159.513,159.513-418.134,0-577.647c-12.423-12.422-25.508-23.761-39.039-34.249l78.86-78.86
		C1074.784,264.963,1148.734,409.865,1148.734,572.039z"/>
	<path fill="#FFFF99" d="M726.837,383.702c4.712,1.143,9.238,2.43,13.583,3.856l-71.278,71.278
		c-6.651-1.348-14.262-2.052-22.922-2.052h-76.108v75.551h25.532L460.441,667.538V417.762c0-22.639,18.352-40.99,40.991-40.99
		h33.159v-43.543c0-19.309,15.654-34.974,34.974-34.974s34.974,15.666,34.974,34.974v43.543h52.348v-43.543
		c0-19.309,15.655-34.974,34.974-34.974c19.321,0,34.975,15.666,34.975,34.974V383.702z M317.956,307.73
		C317.956,307.73,317.957,307.73,317.956,307.73c7.366-8.709,15.13-17.197,23.342-25.408
		c147.09-147.091,378.392-158.429,538.608-34.249l78.86-78.86C868.526,94.738,752.835,50,626.695,50
		C338.38,50,104.656,283.725,104.656,572.039c0,126.14,44.738,241.831,119.213,332.071l83.166-83.166
		C189.787,669.674,193.374,455.038,317.956,307.73z"/>
</g>
</svg>
